<svg width="48" height="48" viewBox="0 0 48 48" fill="none" xmlns="http://www.w3.org/2000/svg">
<rect x="1" y="1" width="46" height="46" rx="23" fill="#1F1E2C"/>
<path d="M16.4788 18.4109L18.6041 17.7602C18.7716 17.709 18.9475 17.6913 19.1219 17.708C19.2962 17.7248 19.4655 17.7758 19.6201 17.858C19.7748 17.9402 19.9117 18.052 20.0231 18.1872C20.1345 18.3223 20.2182 18.4781 20.2695 18.6455C20.3207 18.813 20.3384 18.9889 20.3216 19.1633C20.3048 19.3376 20.2539 19.5069 20.1717 19.6616C20.0895 19.8162 19.9776 19.9531 19.8425 20.0645C19.7074 20.176 19.5516 20.2597 19.3841 20.3109L14.2841 21.8709C14.1166 21.9221 13.9405 21.9398 13.7661 21.923C13.5917 21.9061 13.4223 21.8551 13.2677 21.7727C13.113 21.6904 12.9761 21.5783 12.8648 21.443C12.7534 21.3077 12.6698 21.1518 12.6188 20.9842L11.0588 15.8842C11.0076 15.7167 10.9898 15.5408 11.0066 15.3665C11.0234 15.1921 11.0743 15.0228 11.1566 14.8682C11.2388 14.7135 11.3506 14.5766 11.4858 14.4652C11.6209 14.3538 11.7766 14.2701 11.9441 14.2189C12.2824 14.1154 12.6478 14.1506 12.9601 14.3166C13.2725 14.4827 13.506 14.766 13.6095 15.1042L14.1961 17.0255C17.4068 12.0802 23.7761 9.95353 29.4308 12.2709C31.1219 12.964 32.6405 14.0193 33.8798 15.3625C35.1191 16.7058 36.049 18.3043 36.6041 20.0455C36.661 20.2133 36.6839 20.3907 36.6715 20.5674C36.6591 20.7441 36.6116 20.9165 36.5318 21.0746C36.452 21.2328 36.3415 21.3734 36.2067 21.4883C36.0719 21.6033 35.9156 21.6902 35.7469 21.7441C35.5781 21.7979 35.4003 21.8176 35.2239 21.802C35.0475 21.7864 34.8759 21.7358 34.7192 21.6531C34.5626 21.5705 34.424 21.4574 34.3115 21.3206C34.199 21.1838 34.1149 21.0259 34.0641 20.8562C33.5008 19.0874 32.4487 17.5139 31.0293 16.3175C29.6099 15.1212 27.881 14.3506 26.0424 14.0949C24.2037 13.8392 22.3302 14.1088 20.6382 14.8725C18.9462 15.6362 17.5033 16.8628 16.4788 18.4109ZM32.9148 29.3375L30.5481 29.9282C30.3768 29.9752 30.1977 29.9875 30.0215 29.9643C29.8454 29.9411 29.6756 29.8829 29.5222 29.7932C29.3689 29.7035 29.235 29.584 29.1284 29.4418C29.0219 29.2996 28.9448 29.1375 28.9018 28.9651C28.8588 28.7927 28.8507 28.6134 28.8779 28.4378C28.9052 28.2622 28.9673 28.0939 29.0605 27.9426C29.1538 27.7913 29.2763 27.6603 29.421 27.557C29.5656 27.4538 29.7294 27.3805 29.9028 27.3415L34.7601 26.1295C35.0132 26.0091 35.2979 25.9718 35.5735 26.0229C35.839 26.0578 36.0878 26.1719 36.2876 26.3502C36.4874 26.5286 36.6288 26.763 36.6935 27.0229L37.9841 32.1962C38.0606 32.536 38.0011 32.8922 37.8183 33.1887C37.6355 33.4851 37.344 33.6983 37.0061 33.7826C36.6682 33.8669 36.3107 33.8156 36.01 33.6398C35.7094 33.4639 35.4896 33.1774 35.3975 32.8415L34.9575 31.0789C33.6737 32.9263 31.9154 34.3933 29.8679 35.3253C27.8203 36.2573 25.5593 36.6198 23.323 36.3747C21.0867 36.1296 18.9579 35.2858 17.1609 33.9324C15.3639 32.5789 13.9652 30.7659 13.1121 28.6842L12.7655 27.8389C12.6991 27.6768 12.6653 27.5033 12.666 27.3282C12.6667 27.1531 12.7019 26.9798 12.7696 26.8183C12.8372 26.6568 12.936 26.5102 13.0604 26.3869C13.1847 26.2635 13.3321 26.1659 13.4941 26.0995C13.8214 25.9655 14.1885 25.967 14.5147 26.1036C14.6762 26.1713 14.8228 26.2701 14.9461 26.3944C15.0695 26.5188 15.1671 26.6662 15.2335 26.8282L15.5801 27.6722C16.2598 29.3306 17.3794 30.772 18.8183 31.8407C20.2571 32.9094 21.9605 33.5648 23.7445 33.7364C25.5286 33.9079 27.3256 33.589 28.9417 32.814C30.5578 32.039 31.9316 30.8361 32.9148 29.3375Z" fill="#D3D6F2"/>
<rect x="1" y="1" width="46" height="46" rx="23" stroke="#D3D6F2" stroke-width="2"/>
</svg>
