<svg width="48" height="48" viewBox="0 0 48 48" fill="none" xmlns="http://www.w3.org/2000/svg">
<rect x="1" y="1" width="46" height="46" rx="23" fill="#1F1E2C"/>
<path d="M36.0001 22.6667H33.8801L35.6134 20.9467C35.7377 20.8224 35.8363 20.6748 35.9036 20.5124C35.9709 20.35 36.0055 20.1759 36.0055 20.0001C36.0055 19.8243 35.9709 19.6502 35.9036 19.4877C35.8363 19.3253 35.7377 19.1777 35.6134 19.0534C35.4891 18.9291 35.3415 18.8305 35.1791 18.7632C35.0166 18.6959 34.8426 18.6613 34.6667 18.6613C34.4909 18.6613 34.3168 18.6959 34.1544 18.7632C33.992 18.8305 33.8444 18.9291 33.7201 19.0534L30.1201 22.6667H27.2134L30.2801 19.6134C30.4044 19.4891 30.503 19.3415 30.5703 19.1791C30.6376 19.0167 30.6722 18.8426 30.6722 18.6667C30.6722 18.4909 30.6376 18.3168 30.5703 18.1544C30.503 17.992 30.4044 17.8444 30.2801 17.7201C30.1558 17.5958 30.0082 17.4971 29.8457 17.4299C29.6833 17.3626 29.5092 17.328 29.3334 17.328C29.1576 17.328 28.9835 17.3626 28.8211 17.4299C28.6587 17.4971 28.5111 17.5958 28.3867 17.7201L25.3334 20.7867V17.8801L28.9467 14.2801C29.0711 14.1558 29.1697 14.0082 29.237 13.8457C29.3042 13.6833 29.3389 13.5092 29.3389 13.3334C29.3389 13.1576 29.3042 12.9835 29.237 12.8211C29.1697 12.6587 29.0711 12.5111 28.9467 12.3867C28.8224 12.2624 28.6748 12.1638 28.5124 12.0965C28.35 12.0293 28.1759 11.9946 28.0001 11.9946C27.645 11.9946 27.3045 12.1357 27.0534 12.3867L25.3334 14.1201V12.0001C25.3334 11.6465 25.1929 11.3073 24.9429 11.0573C24.6928 10.8072 24.3537 10.6667 24.0001 10.6667C23.6465 10.6667 23.3073 10.8072 23.0573 11.0573C22.8072 11.3073 22.6667 11.6465 22.6667 12.0001V14.1201L20.9467 12.3867C20.8224 12.2624 20.6748 12.1638 20.5124 12.0965C20.35 12.0293 20.1759 11.9946 20.0001 11.9946C19.8243 11.9946 19.6502 12.0293 19.4877 12.0965C19.3253 12.1638 19.1777 12.2624 19.0534 12.3867C18.8023 12.6378 18.6613 12.9783 18.6613 13.3334C18.6613 13.6885 18.8023 14.029 19.0534 14.2801L22.6667 17.8801V20.7867L19.6134 17.7201C19.4891 17.5958 19.3415 17.4971 19.1791 17.4299C19.0167 17.3626 18.8426 17.328 18.6667 17.328C18.4909 17.328 18.3168 17.3626 18.1544 17.4299C17.992 17.4971 17.8444 17.5958 17.7201 17.7201C17.5958 17.8444 17.4971 17.992 17.4299 18.1544C17.3626 18.3168 17.328 18.4909 17.328 18.6667C17.328 18.8426 17.3626 19.0167 17.4299 19.1791C17.4971 19.3415 17.5958 19.4891 17.7201 19.6134L20.7867 22.6667H17.8801L14.2801 19.0534C14.029 18.8023 13.6885 18.6613 13.3334 18.6613C12.9783 18.6613 12.6378 18.8023 12.3867 19.0534C12.1357 19.3045 11.9946 19.645 11.9946 20.0001C11.9946 20.3551 12.1357 20.6957 12.3867 20.9467L14.1201 22.6667H12.0001C11.6465 22.6667 11.3073 22.8072 11.0573 23.0573C10.8072 23.3073 10.6667 23.6465 10.6667 24.0001C10.6667 24.3537 10.8072 24.6928 11.0573 24.9429C11.3073 25.1929 11.6465 25.3334 12.0001 25.3334H14.1201L12.3867 27.0534C12.2618 27.1774 12.1626 27.3248 12.0949 27.4873C12.0272 27.6498 11.9924 27.8241 11.9924 28.0001C11.9924 28.1761 12.0272 28.3504 12.0949 28.5128C12.1626 28.6753 12.2618 28.8228 12.3867 28.9467C12.5107 29.0717 12.6582 29.1709 12.8206 29.2386C12.9831 29.3063 13.1574 29.3411 13.3334 29.3411C13.5094 29.3411 13.6837 29.3063 13.8462 29.2386C14.0087 29.1709 14.1561 29.0717 14.2801 28.9467L17.8801 25.3334H20.7867L17.7201 28.3867C17.5951 28.5107 17.4959 28.6582 17.4282 28.8206C17.3605 28.9831 17.3257 29.1574 17.3257 29.3334C17.3257 29.5094 17.3605 29.6837 17.4282 29.8462C17.4959 30.0087 17.5951 30.1561 17.7201 30.2801C17.844 30.4051 17.9915 30.5042 18.154 30.5719C18.3165 30.6396 18.4907 30.6745 18.6667 30.6745C18.8428 30.6745 19.017 30.6396 19.1795 30.5719C19.342 30.5042 19.4895 30.4051 19.6134 30.2801L22.6667 27.2134V30.1201L19.0534 33.7201C18.8023 33.9712 18.6613 34.3117 18.6613 34.6667C18.6613 35.0218 18.8023 35.3623 19.0534 35.6134C19.3045 35.8645 19.645 36.0055 20.0001 36.0055C20.3551 36.0055 20.6957 35.8645 20.9467 35.6134L22.6667 33.8801V36.0001C22.6667 36.3537 22.8072 36.6928 23.0573 36.9429C23.3073 37.1929 23.6465 37.3334 24.0001 37.3334C24.3537 37.3334 24.6928 37.1929 24.9429 36.9429C25.1929 36.6928 25.3334 36.3537 25.3334 36.0001V33.8801L27.0534 35.6134C27.1774 35.7384 27.3248 35.8376 27.4873 35.9053C27.6498 35.973 27.8241 36.0078 28.0001 36.0078C28.1761 36.0078 28.3504 35.973 28.5128 35.9053C28.6753 35.8376 28.8228 35.7384 28.9467 35.6134C29.0717 35.4895 29.1709 35.342 29.2386 35.1795C29.3063 35.017 29.3411 34.8428 29.3411 34.6667C29.3411 34.4907 29.3063 34.3165 29.2386 34.154C29.1709 33.9915 29.0717 33.844 28.9467 33.7201L25.3334 30.1201V27.2134L28.3867 30.2801C28.5107 30.4051 28.6582 30.5042 28.8206 30.5719C28.9831 30.6396 29.1574 30.6745 29.3334 30.6745C29.5094 30.6745 29.6837 30.6396 29.8462 30.5719C30.0087 30.5042 30.1561 30.4051 30.2801 30.2801C30.4051 30.1561 30.5042 30.0087 30.5719 29.8462C30.6396 29.6837 30.6745 29.5094 30.6745 29.3334C30.6745 29.1574 30.6396 28.9831 30.5719 28.8206C30.5042 28.6582 30.4051 28.5107 30.2801 28.3867L27.2134 25.3334H30.1201L33.7201 28.9467C33.844 29.0717 33.9915 29.1709 34.154 29.2386C34.3165 29.3063 34.4907 29.3411 34.6667 29.3411C34.8428 29.3411 35.017 29.3063 35.1795 29.2386C35.342 29.1709 35.4895 29.0717 35.6134 28.9467C35.7384 28.8228 35.8376 28.6753 35.9053 28.5128C35.973 28.3504 36.0078 28.1761 36.0078 28.0001C36.0078 27.8241 35.973 27.6498 35.9053 27.4873C35.8376 27.3248 35.7384 27.1774 35.6134 27.0534L33.8801 25.3334H36.0001C36.3537 25.3334 36.6928 25.1929 36.9429 24.9429C37.1929 24.6928 37.3334 24.3537 37.3334 24.0001C37.3334 23.6465 37.1929 23.3073 36.9429 23.0573C36.6928 22.8072 36.3537 22.6667 36.0001 22.6667Z" fill="#D3D6F2"/>
<rect x="1" y="1" width="46" height="46" rx="23" stroke="#D3D6F2" stroke-width="2"/>
</svg>
