<svg width="48" height="48" viewBox="0 0 48 48" fill="none" xmlns="http://www.w3.org/2000/svg">
<rect x="1" y="1" width="46" height="46" rx="23" fill="#1F1E2C"/>
<path d="M34.5841 25.3334C34.2873 27.6833 33.2172 29.8676 31.5424 31.5424C29.8676 33.2172 27.6833 34.2873 25.3334 34.5841V37.3334H22.6667V34.5841C20.3169 34.2873 18.1325 33.2172 16.4577 31.5424C14.7829 29.8676 13.7129 27.6833 13.4161 25.3334H10.6667V22.6667H13.4161C13.7129 20.3169 14.7829 18.1325 16.4577 16.4577C18.1325 14.7829 20.3169 13.7129 22.6667 13.4161V10.6667H25.3334V13.4161C27.6833 13.7129 29.8676 14.7829 31.5424 16.4577C33.2172 18.1325 34.2873 20.3169 34.5841 22.6667H37.3334V25.3334H34.5841ZM24.0001 32.0001C26.1218 32.0001 28.1566 31.1572 29.6569 29.6569C31.1572 28.1566 32.0001 26.1218 32.0001 24.0001C32.0001 21.8783 31.1572 19.8435 29.6569 18.3432C28.1566 16.8429 26.1218 16.0001 24.0001 16.0001C21.8783 16.0001 19.8435 16.8429 18.3432 18.3432C16.8429 19.8435 16.0001 21.8783 16.0001 24.0001C16.0001 26.1218 16.8429 28.1566 18.3432 29.6569C19.8435 31.1572 21.8783 32.0001 24.0001 32.0001ZM24.0001 28.0001C25.0609 28.0001 26.0784 27.5787 26.8285 26.8285C27.5787 26.0784 28.0001 25.0609 28.0001 24.0001C28.0001 22.9392 27.5787 21.9218 26.8285 21.1717C26.0784 20.4215 25.0609 20.0001 24.0001 20.0001C22.9392 20.0001 21.9218 20.4215 21.1717 21.1717C20.4215 21.9218 20.0001 22.9392 20.0001 24.0001C20.0001 25.0609 20.4215 26.0784 21.1717 26.8285C21.9218 27.5787 22.9392 28.0001 24.0001 28.0001Z" fill="#D3D6F2"/>
<rect x="1" y="1" width="46" height="46" rx="23" stroke="#D3D6F2" stroke-width="2"/>
</svg>
