<svg width="48" height="48" viewBox="0 0 48 48" fill="none" xmlns="http://www.w3.org/2000/svg">
<rect x="1" y="1" width="46" height="46" rx="23" fill="#1F1E2C"/>
<path d="M13.3333 26.6667C13.3333 24.3333 13.8888 22.2556 14.9999 20.4333C16.111 18.6111 17.3333 17.0778 18.6666 15.8333C19.9999 14.5889 21.2221 13.6387 22.3333 12.9827L23.9999 12V16.4C23.9999 17.2222 24.2777 17.872 24.8333 18.3493C25.3888 18.8276 26.011 19.0667 26.6999 19.0667C27.0777 19.0667 27.439 18.9889 27.7839 18.8333C28.1279 18.6778 28.4444 18.4222 28.7333 18.0667L29.3333 17.3333C30.9333 18.2667 32.2221 19.5609 33.1999 21.216C34.1777 22.872 34.6666 24.6889 34.6666 26.6667C34.6666 28.6222 34.1888 30.4053 33.2333 32.016C32.2777 33.6276 31.0221 34.9 29.4666 35.8333C29.8444 35.3 30.139 34.7164 30.3506 34.0827C30.5613 33.4498 30.6666 32.7778 30.6666 32.0667C30.6666 31.1778 30.4999 30.3391 30.1666 29.5507C29.8333 28.7613 29.3555 28.0556 28.7333 27.4333L23.9999 22.8L19.2999 27.4333C18.6555 28.0778 18.1666 28.7889 17.8333 29.5667C17.4999 30.3444 17.3333 31.1778 17.3333 32.0667C17.3333 32.7778 17.439 33.4498 17.6506 34.0827C17.8613 34.7164 18.1555 35.3 18.5333 35.8333C16.9777 34.9 15.7221 33.6276 14.7666 32.016C13.811 30.4053 13.3333 28.6222 13.3333 26.6667ZM23.9999 26.5333L26.8333 29.3C27.211 29.6778 27.4999 30.1 27.6999 30.5667C27.8999 31.0333 27.9999 31.5333 27.9999 32.0667C27.9999 33.1556 27.611 34.0831 26.8333 34.8493C26.0555 35.6164 25.111 36 23.9999 36C22.8888 36 21.9444 35.6164 21.1666 34.8493C20.3888 34.0831 19.9999 33.1556 19.9999 32.0667C19.9999 31.5556 20.0999 31.0613 20.2999 30.584C20.4999 30.1058 20.7888 29.6778 21.1666 29.3L23.9999 26.5333Z" fill="#D3D6F2"/>
<rect x="1" y="1" width="46" height="46" rx="23" stroke="#D3D6F2" stroke-width="2"/>
</svg>
